<svg xmlns="http://www.w3.org/2000/svg" width="24" height="24" viewBox="0 0 24 24">
  <!-- Monochrome Soar mark for the activity bar (themed by VS Code) -->
  <path fill="currentColor" d="M21 3 L7 12 L21 21 Z"/>
  <g transform="translate(6,18.5)">
    <g fill="currentColor" fill-rule="evenodd">
      <path d="M-1 -4.2 h2 v2.4 h-2 Z M-1 1.8 h2 v2.4 h-2 Z M-4.2 -1 h2.4 v2 h-2.4 Z M1.8 -1 h2.4 v2 h-2.4 Z"/>
      <g transform="rotate(45)">
        <path d="M-1 -4.2 h2 v2.4 h-2 Z M-1 1.8 h2 v2.4 h-2 Z M-4.2 -1 h2.4 v2 h-2.4 Z M1.8 -1 h2.4 v2 h-2.4 Z"/>
      </g>
      <path d="M0 -3 a3 3 0 1 0 0.001 0 Z M0 -1.3 a1.3 1.3 0 1 1 -0.001 0 Z"/>
    </g>
  </g>
</svg>
